/* XPM */
static char *top_left_active_png[] = {
/* columns rows colors chars-per-pixel */
"7 38 27 1 ",
"  c #0B0C0C",
". c #141718",
"X c #171B1B",
"o c #181C1C",
"O c #191C1C",
"+ c #191D1D",
"@ c #1A1E1E",
"# c #1A1F1F",
"$ c #1B1F1F",
"% c #1C2020",
"& c #1C2021",
"* c #222628",
"= c #242829",
"- c #262A2C",
"; c #292D2F",
": c #2B2F31",
"> c #2C3133",
", c #2D3234",
"< c #2E3335",
"1 c #2F3536",
"2 c #303537",
"3 c #323739",
"4 c #32383A",
"5 c #34393B",
"6 c #373B3D",
"7 c #363C3E",
"8 c None",
/* pixels */
"888.oo&",
"88.@O16",
"8.O=73<",
"8+*5,>>",
"X+4>>>>",
"+;,>>>>",
"%2>>>>>",
"$<>>>>>",
"$>>>>>>",
"$>>>>>>",
"$>>>>>>",
"$>>>>>>",
"$>>>>>>",
"$>>>>>>",
"$>>>>>>",
"$>>>>>>",
"$>>>>>>",
"$>>>>>>",
"$>>>>>>",
"$>>>>>>",
"$>>>>>>",
"$>>>>>>",
"$>>>>>>",
"$>>>>>>",
"$>>>>>>",
"$>>>>>>",
"#>>>>>>",
"#>>>>>>",
"#>>>>>>",
"#>>>>>>",
"#>>>>>>",
"#>>>>>>",
"#>>>>>>",
"#>>>>>>",
"#::::::",
"#;;;;;;",
"#------",
"#      "
};
